# xmcd
#
# Track frame offsets: 
#        150
#        13605
#        26950
#        42635
#        56627
#        70590
#        84490
#        98907
#        112860
#        126152
#        138055
#        151320
#        165680
#        179395
#        192015
#        206270
#        221472
#        236227
#        249585
#        263855
#        275972
#        291805
#        307140
#        320645
#
# Disc length: 4454 seconds
#
# Revision: 0
# Processed by: cddbd v1.5.2PL0 Copyright (c) Steve Scherf et al.
# Submitted via: ExactAudioCopy v0.95b3
#
DISCID=64116418
DTITLE=Cab Calloway  - Volume 1 1929-1930 Complete Edition
DYEAR=1900
DGENRE=
TTITLE0=Georgia Pines
TTITLE1=Song Of The Bayou
TTITLE2=Market Street Stomp
TTITLE3=Ozark Mountain Blues
TTITLE4=Ozark Mountain Blues
TTITLE5=You'll Cry For Me. But I'll Be Gone
TTITLE6=You'll Cry For Me. But I'll Be Gone
TTITLE7=Missouri Moan
TTITLE8=I've Got Someone
TTITLE9='400' Hop
TTITLE10=Vine Street Drag
TTITLE11=Scotty Blues
TTITLE12=Two Hundred Squabble
TTITLE13=Swingin' Dem Cats
TTITLE14=Stoppin' The Treaffic
TTITLE15=Prohibition Blues
TTITLE16=Gotta Doown Good Reason Now
TTITLE17=St. Louis Blues
TTITLE18=Sweet Jennie Lee
TTITLE19=Happy Feet
TTITLE20=Yaller
TTITLE21=Viper's Drag
TTITLE22=Is That Religion?
TTITLE23=Some Of This Days
EXTD=
EXTT0=
EXTT1=
EXTT2=
EXTT3=
EXTT4=
EXTT5=
EXTT6=
EXTT7=
EXTT8=
EXTT9=
EXTT10=
EXTT11=
EXTT12=
EXTT13=
EXTT14=
EXTT15=
EXTT16=
EXTT17=
EXTT18=
EXTT19=
EXTT20=
EXTT21=
EXTT22=
EXTT23=
PLAYORDER=
